<svg width="168" height="70" viewBox="0 0 168 70" fill="none" xmlns="http://www.w3.org/2000/svg">
<g clip-path="url(#clip0_232_80)">
<g clip-path="url(#clip1_232_80)">
<path d="M97.8127 54.2865H90.7187V37.5081L80.269 54.244H72.4954C69.0121 50.8883 66.3359 45.4937 66.3359 39.7169C66.3359 29.5224 73.5573 22.5137 84.6868 22.5137C89.5718 22.5137 94.6693 24.1278 97.7702 26.2516V40.439V54.2865H97.8127ZM76.276 47.4901L87.7877 29.6073C86.5134 29.225 85.2815 29.1401 83.9221 29.1401C77.0831 29.1401 73.6423 33.7701 73.6423 39.2496C73.5998 42.308 74.2795 45.069 76.276 47.4901Z" fill="#005156"/>
<path d="M9.7966 53.3944C7.75762 52.46 6.14343 51.2281 4.95403 49.6565C3.76462 48.0848 3.12744 46.3433 3 44.3893H10.9435C11.1134 45.5787 11.6657 46.5981 12.7276 47.3627C13.7471 48.1698 15.064 48.5521 16.5932 48.5521C18.08 48.5521 19.2694 48.2547 20.1189 47.6601C20.9685 47.0654 21.3933 46.3008 21.3933 45.3663C21.3933 44.3468 20.8836 43.5823 19.8216 43.0725C18.8021 42.5628 17.1454 42.0106 14.8941 41.4159C12.5577 40.8637 10.6462 40.2691 9.15942 39.6744C7.67266 39.0797 6.3983 38.1452 5.33633 36.9134C4.27436 35.6815 3.72214 33.9825 3.72214 31.9011C3.72214 30.1595 4.23189 28.5879 5.2089 27.1437C6.18591 25.6994 7.63019 24.595 9.49925 23.7455C11.3683 22.896 13.5347 22.5137 16.0835 22.5137C19.8216 22.5137 22.7951 23.4482 25.004 25.3172C27.2129 27.1861 28.4448 29.6923 28.6572 32.8356H21.096C20.9685 31.6038 20.4588 30.6268 19.5242 29.8622C18.5897 29.1401 17.3578 28.7578 15.8286 28.7578C14.3843 28.7578 13.2799 29.0127 12.5152 29.5649C11.7506 30.0746 11.3683 30.8392 11.3683 31.7737C11.3683 32.8356 11.8781 33.6426 12.94 34.1524C14.002 34.7046 15.6162 35.2568 17.8676 35.809C20.1189 36.3612 21.988 36.9559 23.4323 37.5505C24.919 38.1452 26.1509 39.0797 27.2554 40.354C28.3173 41.6283 28.8696 43.2849 28.912 45.3663C28.912 47.1503 28.4023 48.8069 27.4253 50.2087C26.4483 51.6529 25.004 52.7573 23.1349 53.5644C21.2659 54.3714 19.0995 54.7962 16.6357 54.7962C14.1294 54.7962 11.8356 54.3289 9.7966 53.3944Z" fill="#005156"/>
<path d="M59.2421 26.1232C61.5359 28.4595 62.6829 31.7727 62.6829 35.9779V54.328H54.7818V36.9974C54.7818 34.5337 54.1446 32.6222 52.9128 31.263C51.6809 29.9462 49.9817 29.2665 47.8153 29.2665C45.6489 29.2665 43.9073 29.9462 42.6329 31.263C41.3585 32.5797 40.7638 34.4912 40.7638 36.9974V54.243H32.8628V23.0224H40.7638V26.9303C41.8258 25.571 43.1426 24.5091 44.7993 23.7445C46.456 22.9799 48.2401 22.5977 50.1941 22.5977C53.9323 22.5977 56.9482 23.7445 59.2421 26.1232Z" fill="#005156"/>
<path d="M114.805 23.9579C116.589 22.9809 118.628 22.5137 120.922 22.5137C123.598 22.5137 126.019 23.1933 128.185 24.4676C130.352 25.7844 132.051 27.6534 133.325 30.0746C134.6 32.4958 135.194 35.2992 135.194 38.5275C135.194 41.7557 134.557 44.5592 133.325 47.0229C132.051 49.4866 130.352 51.398 128.185 52.7573C126.019 54.1166 123.598 54.7962 120.922 54.7962C118.628 54.7962 116.589 54.3289 114.847 53.3944C113.106 52.4599 111.661 51.2706 110.599 49.8264V69.1534H102.698V23.0234H110.599V27.526C111.619 26.1242 113.021 24.9349 114.805 23.9579ZM125.977 33.6426C125.212 32.2834 124.192 31.2215 122.918 30.4993C121.644 29.7772 120.284 29.4374 118.84 29.4374C117.396 29.4374 116.079 29.8197 114.805 30.5418C113.53 31.2639 112.511 32.3259 111.746 33.7276C110.982 35.1293 110.599 36.7435 110.599 38.6549C110.599 40.5239 110.982 42.1805 111.746 43.5823C112.511 44.984 113.53 46.0459 114.805 46.768C116.079 47.4901 117.396 47.8724 118.84 47.8724C120.327 47.8724 121.686 47.4901 122.918 46.7256C124.192 45.961 125.212 44.899 125.977 43.4973C126.741 42.0956 127.124 40.439 127.124 38.5275C127.124 36.6585 126.741 35.0444 125.977 33.6426Z" fill="#005156"/>
<path d="M145.007 53.3944C142.968 52.46 141.353 51.2281 140.164 49.6565C138.975 48.0848 138.337 46.3433 138.21 44.3893H146.196C146.366 45.5787 146.918 46.5981 147.98 47.3627C149 48.1698 150.316 48.5521 151.846 48.5521C153.332 48.5521 154.522 48.2547 155.371 47.6601C156.221 47.0654 156.646 46.3008 156.646 45.3663C156.646 44.3468 156.136 43.5823 155.074 43.0725C154.055 42.5628 152.398 42.0106 150.146 41.4159C147.81 40.8637 145.899 40.2691 144.412 39.6744C142.925 39.0797 141.651 38.1452 140.589 36.9134C139.484 35.6815 138.975 33.9825 138.975 31.9011C138.975 30.1595 139.484 28.5879 140.461 27.1437C141.438 25.6994 142.883 24.595 144.752 23.7455C146.621 22.896 148.787 22.5137 151.336 22.5137C155.074 22.5137 158.048 23.4482 160.256 25.3172C162.465 27.1861 163.697 29.6923 163.91 32.8356H156.348C156.221 31.6038 155.711 30.6268 154.777 29.8622C153.842 29.1401 152.61 28.7578 151.081 28.7578C149.637 28.7578 148.532 29.0127 147.768 29.5649C147.003 30.0746 146.621 30.8392 146.621 31.7737C146.621 32.8356 147.13 33.6426 148.192 34.1524C149.254 34.7046 150.869 35.2568 153.12 35.809C155.371 36.3612 157.24 36.9559 158.685 37.5505C160.171 38.1452 161.403 39.0797 162.508 40.354C163.57 41.6283 164.122 43.2849 164.164 45.3663C164.164 47.1503 163.655 48.8069 162.678 50.2087C161.701 51.6529 160.256 52.7573 158.387 53.5644C156.518 54.3714 154.352 54.7962 151.888 54.7962C149.339 54.7962 147.046 54.3289 145.007 53.3944Z" fill="#005156"/>
</g>
</g>
<defs>
<clipPath id="clip0_232_80">
<rect width="168" height="70" fill="white"/>
</clipPath>
<clipPath id="clip1_232_80">
<rect width="255" height="69.1525" fill="white"/>
</clipPath>
</defs>
</svg>
