<svg width="278" height="156" viewBox="0 0 278 156" fill="none" xmlns="http://www.w3.org/2000/svg">
<path d="M3.24805 3.52734C5.43804 5.47401 5.51184 10.6043 6.19731 13.1795C8.33704 21.2179 11.4066 29.105 14.911 36.6395C26.6926 61.9699 43.6122 84.4432 65.7188 101.657C112.147 137.81 175.806 142.686 231.883 133.831C242.379 132.174 252.223 128.879 262.515 126.592C263.336 126.41 268.168 125.386 266.001 125.386C253.556 125.386 240.654 124.555 229.001 120.023C225.996 118.855 224.586 117.662 229.202 118.884C240.946 121.993 252.57 123.471 264.66 124.715C267.253 124.982 276.977 123.496 273.977 126.726C268.716 132.392 262.133 136.839 256.617 142.277C254.188 144.67 251.755 147.072 249.377 149.516C248.516 150.402 247.118 153.557 246.964 152.331C246.564 149.126 249.667 143.839 251.187 141.137C253.096 137.743 256.187 134.69 257.823 131.418" stroke="#8CBBA1" stroke-width="6" stroke-linecap="round"/>
</svg>
