<svg width="245" height="165" viewBox="0 0 245 165" fill="none" xmlns="http://www.w3.org/2000/svg">
<path d="M144.133 141.808H133.349V116.366L117.463 141.808H105.646C100.35 136.707 96.2822 128.506 96.2822 119.723C96.2822 104.225 107.26 93.5703 124.179 93.5703C131.605 93.5703 139.354 96.0242 144.068 99.253V120.757V141.808H144.133ZM111.393 131.476L128.893 104.29C126.956 103.709 125.083 103.58 123.017 103.58C112.62 103.58 107.389 110.618 107.389 118.949C107.325 123.663 108.358 127.795 111.393 131.476Z" fill="#005156"/>
<path d="M10.3321 140.452C7.23247 139.032 4.7786 137.159 2.97048 134.77C1.16236 132.38 0.193727 129.733 0 126.762H12.0756C12.3339 128.57 13.1734 130.12 14.7878 131.283C16.3376 132.51 18.3395 133.091 20.6642 133.091C22.9244 133.091 24.7325 132.639 26.024 131.735C27.3155 130.831 27.9613 129.668 27.9613 128.248C27.9613 126.698 27.1863 125.535 25.572 124.76C24.0221 123.986 21.5037 123.146 18.0812 122.242C14.5295 121.403 11.6236 120.498 9.36347 119.594C7.10332 118.69 5.16605 117.27 3.55166 115.397C1.93727 113.524 1.09779 110.941 1.09779 107.777C1.09779 105.129 1.87269 102.74 3.35793 100.545C4.84317 98.349 7.03874 96.6701 9.88007 95.3785C12.7214 94.1516 16.0148 93.5059 19.8893 93.5059C25.572 93.5059 30.0922 94.9265 33.4502 97.7678C36.8081 100.609 38.6808 104.419 39.0037 109.198H27.5738C27.3801 107.325 26.6052 105.84 25.1845 104.677C23.7638 103.58 21.8911 102.998 19.5664 102.998C17.3708 102.998 15.6919 103.386 14.5295 104.225C13.3672 105 12.786 106.163 12.786 107.583C12.786 109.198 13.5609 110.425 15.1753 111.2C16.7897 112.039 19.2435 112.879 22.666 113.718C26.0886 114.558 28.9299 115.462 31.1255 116.366C33.3856 117.27 35.2583 118.69 36.9373 120.628C38.5517 122.565 39.3911 125.083 39.4557 128.248C39.4557 130.96 38.6808 133.478 37.1956 135.609C35.7103 137.805 33.5148 139.484 30.6734 140.711C27.8321 141.938 24.5387 142.583 20.7934 142.583C16.9188 142.583 13.4317 141.873 10.3321 140.452Z" fill="#005156"/>
<path d="M85.4978 98.9945C88.9849 102.546 90.7285 107.583 90.7285 113.976V141.873H78.7174V115.59C78.7174 111.845 77.7488 108.939 75.8761 106.873C74.0034 104.871 71.4203 103.838 68.127 103.838C64.8336 103.838 62.186 104.871 60.2488 106.873C58.3115 108.875 57.4074 111.781 57.4074 115.59V141.808H45.4609V94.2805H57.472V100.221C59.0864 98.1551 61.0882 96.5407 63.6067 95.3783C66.1251 94.2159 68.8373 93.6348 71.8078 93.6348C77.4905 93.6348 82.0107 95.3783 85.4978 98.9945Z" fill="#005156"/>
<path d="M169.963 95.7014C172.675 94.2162 175.775 93.5059 179.262 93.5059C183.33 93.5059 187.011 94.5391 190.304 96.4763C193.598 98.4782 196.181 101.32 198.118 105C200.055 108.681 200.959 112.943 200.959 117.851C200.959 122.759 199.991 127.021 198.118 130.766C196.181 134.511 193.598 137.417 190.304 139.484C187.011 141.55 183.33 142.583 179.262 142.583C175.775 142.583 172.675 141.873 170.028 140.452C167.38 139.032 165.185 137.224 163.57 135.028V164.41H151.559V94.2808H163.57V101.126C165.12 98.9948 167.251 97.1867 169.963 95.7014ZM186.947 110.489C185.784 108.423 184.234 106.808 182.297 105.711C180.36 104.613 178.293 104.096 176.098 104.096C173.902 104.096 171.9 104.677 169.963 105.775C168.026 106.873 166.476 108.487 165.314 110.618C164.151 112.749 163.57 115.203 163.57 118.109C163.57 120.951 164.151 123.469 165.314 125.6C166.476 127.731 168.026 129.345 169.963 130.443C171.9 131.541 173.902 132.122 176.098 132.122C178.358 132.122 180.424 131.541 182.297 130.379C184.234 129.216 185.784 127.602 186.947 125.471C188.109 123.34 188.69 120.821 188.69 117.915C188.69 115.01 188.109 112.556 186.947 110.489Z" fill="#005156"/>
<path d="M215.877 140.452C212.777 139.032 210.323 137.159 208.515 134.77C206.707 132.38 205.738 129.733 205.544 126.762H217.685C217.943 128.57 218.782 130.12 220.397 131.283C221.947 132.51 223.948 133.091 226.273 133.091C228.533 133.091 230.341 132.639 231.633 131.735C232.925 130.831 233.57 129.668 233.57 128.248C233.57 126.698 232.795 125.535 231.181 124.76C229.631 123.986 227.113 123.146 223.69 122.242C220.139 121.403 217.233 120.498 214.972 119.594C212.712 118.69 210.775 117.27 209.161 115.397C207.546 113.524 206.707 110.941 206.707 107.777C206.707 105.129 207.482 102.74 208.967 100.545C210.452 98.349 212.648 96.6701 215.489 95.3785C218.33 94.1516 221.624 93.5059 225.498 93.5059C231.181 93.5059 235.701 94.9265 239.059 97.7678C242.417 100.609 244.29 104.419 244.613 109.198H233.118C232.924 107.325 232.15 105.84 230.729 104.677C229.308 103.58 227.436 102.998 225.111 102.998C222.915 102.998 221.236 103.386 220.074 104.225C218.912 105 218.33 106.163 218.33 107.583C218.33 109.198 219.105 110.425 220.72 111.2C222.334 112.039 224.788 112.879 228.21 113.718C231.633 114.558 234.474 115.462 236.67 116.366C238.93 117.27 240.803 118.69 242.482 120.628C244.096 122.565 244.936 125.083 245 128.248C245 130.96 244.225 133.478 242.74 135.609C241.255 137.805 239.059 139.484 236.218 140.711C233.377 141.938 230.083 142.583 226.338 142.583C222.463 142.583 218.976 141.873 215.877 140.452Z" fill="#005156"/>
<path d="M142.26 62.3795H107.519C107.777 65.802 109.004 68.5142 111.135 70.4514C113.266 72.3887 115.849 73.3573 118.949 73.3573C123.404 73.3573 126.568 71.4201 128.441 67.6101H141.421C140.065 72.195 137.417 75.9404 133.543 78.9108C129.668 81.8813 124.889 83.302 119.207 83.302C114.622 83.302 110.554 82.2688 106.873 80.2669C103.257 78.2651 100.415 75.3592 98.4135 71.6784C96.4116 67.933 95.3784 63.671 95.3784 58.8278C95.3784 53.9201 96.347 49.5935 98.3489 45.8481C100.351 42.1027 103.127 39.2614 106.744 37.2595C110.36 35.2577 114.493 34.2891 119.207 34.2891C123.727 34.2891 127.795 35.2577 131.347 37.195C134.899 39.1322 137.675 41.909 139.677 45.4607C141.679 49.0123 142.648 53.1452 142.648 57.7946C142.583 59.4736 142.454 61.0234 142.26 62.3795ZM130.185 54.3075C130.12 51.2079 129.022 48.754 126.827 46.8813C124.631 45.0086 121.984 44.1046 118.819 44.1046C115.849 44.1046 113.33 45.0086 111.329 46.8167C109.327 48.6249 108.035 51.1433 107.583 54.3075H130.185Z" fill="#005156"/>
<path d="M42.2969 58.6347L26.4113 78.4594C24.022 81.4299 20.4058 83.1734 16.6604 83.1734H16.4666C9.55705 83.1734 3.93896 77.5554 3.93896 70.6458V55.5351V37.0664V10.0092H14.9814V26.476H33.5792V36.8081H14.9814V66.7066C14.9814 68.321 16.3375 69.6771 17.9519 69.6771C18.8559 69.6771 19.6954 69.2897 20.2766 68.5793L42.3615 41.5221V16.7251C42.2969 6.39299 48.1733 0 58.8283 0C68.3209 0 74.4556 5.2952 74.4556 14.0129C74.4556 22.8598 67.3522 29.7048 61.605 36.6144L52.9519 47.0111V61.024L64.7692 42.3616C68.9021 35.9686 73.4869 34.3542 78.3947 34.3542C86.3375 34.3542 90.212 39.6494 90.212 47.6568V60.6365V82.2048H79.105V48.4317C79.105 45.655 78.3947 45.203 77.1677 45.203C75.8762 45.203 75.2305 45.9779 73.939 48.0443L52.4998 82.0756H42.2969V58.6347ZM52.9519 31.6421L59.474 23.2472C62.3153 19.5664 63.1548 16.9188 63.1548 14.8524C63.1548 11.3007 60.6364 9.94465 58.3117 9.94465C54.9537 9.94465 52.9519 12.4631 52.9519 15.8856V31.6421Z" fill="#005156"/>
</svg>
