<svg width="91" height="70" viewBox="0 0 91 70" fill="none" xmlns="http://www.w3.org/2000/svg">
<g clip-path="url(#clip0_232_79)">
<path d="M90.9895 41.0322H68.1359C68.3058 43.2835 69.1129 45.0675 70.5147 46.3418C71.9165 47.6161 73.6157 48.2533 75.6546 48.2533C78.5857 48.2533 80.6671 46.979 81.899 44.4728H90.4373C89.5452 47.4887 87.8036 49.9524 85.2548 51.9063C82.7061 53.8602 79.5627 54.7947 75.8246 54.7947C72.8086 54.7947 70.1324 54.1151 67.7111 52.7983C65.3323 51.4815 63.4632 49.5701 62.1464 47.1489C60.8296 44.6852 60.1499 41.8817 60.1499 38.6959C60.1499 35.4677 60.7871 32.6217 62.1039 30.1581C63.4208 27.6944 65.2473 25.8254 67.6262 24.5086C70.005 23.1918 72.7236 22.5547 75.8246 22.5547C78.7981 22.5547 81.4742 23.1918 83.8106 24.4662C86.1469 25.7405 87.9735 27.567 89.2903 29.9032C90.6072 32.2394 91.2444 34.958 91.2444 38.0163C91.2019 39.1207 91.1169 40.1402 90.9895 41.0322ZM83.046 35.7226C83.0035 33.6837 82.2813 32.0695 80.8371 30.8377C79.3928 29.6059 77.6511 29.0112 75.5697 29.0112C73.6157 29.0112 71.959 29.6059 70.6422 30.7952C69.3253 31.9846 68.4757 33.6412 68.1784 35.7226H83.046Z" fill="#005156"/>
<path d="M25.2324 38.5691L14.7826 51.6095C13.2109 53.5635 10.8321 54.7104 8.36832 54.7104H8.24088C3.69565 54.7104 0 51.0149 0 46.4698V36.5302V24.3818V6.58393H7.26387V17.4156H19.4978V24.2119H7.26387V43.8787C7.26387 44.9407 8.15592 45.8327 9.21789 45.8327C9.8126 45.8327 10.3648 45.5778 10.7471 45.1106L25.2749 27.3127V11.0015C25.2324 4.20522 29.098 0 36.107 0C42.3513 0 46.3868 3.48311 46.3868 9.21751C46.3868 15.0369 41.7142 19.5394 37.9335 24.0845L32.2414 30.9232V40.1408L40.015 27.8649C42.7336 23.6597 45.7496 22.5978 48.978 22.5978C54.2029 22.5978 56.7516 26.0809 56.7516 31.348V39.8859V54.0732H49.4453V31.8577C49.4453 30.0312 48.978 29.7339 48.1709 29.7339C47.3214 29.7339 46.8966 30.2436 46.047 31.6029L31.944 53.9882H25.2324V38.5691ZM32.2414 20.8137L36.5317 15.2917C38.4008 12.8705 38.953 11.129 38.953 9.76971C38.953 7.43347 37.2964 6.54146 35.7671 6.54146C33.5582 6.54146 32.2414 8.19806 32.2414 10.4493V20.8137Z" fill="#005156"/>
</g>
<defs>
<clipPath id="clip0_232_79">
<rect width="91" height="70" fill="white"/>
</clipPath>
</defs>
</svg>
