<svg width="3135" height="851" viewBox="0 0 3135 851" fill="none" xmlns="http://www.w3.org/2000/svg">
<path d="M2319.26 667.421H2232.05V461.137L2103.58 666.899H2008.01C1965.18 625.642 1932.28 559.318 1932.28 488.293C1932.28 362.956 2021.06 276.787 2157.89 276.787C2217.95 276.787 2280.62 296.632 2318.74 322.744V497.171V667.421H2319.26ZM2054.49 583.863L2196.01 364C2180.35 359.3 2165.2 358.256 2148.49 358.256C2064.41 358.256 2022.11 415.18 2022.11 482.549C2021.59 520.15 2029.94 554.095 2054.49 583.863Z" fill="#005156"/>
<path d="M1118.64 504.483H837.671C839.76 532.161 849.683 554.095 866.916 569.763C884.15 585.43 905.04 593.263 930.107 593.263C966.142 593.263 991.732 577.596 1006.88 546.784H1111.85C1100.88 583.863 1079.47 614.153 1048.13 638.176C1016.8 662.199 978.153 673.688 932.196 673.688C895.117 673.688 862.216 665.332 832.449 649.143C803.203 632.954 780.225 609.453 764.035 579.685C747.846 549.395 739.49 514.928 739.49 475.76C739.49 436.07 747.324 401.079 763.513 370.79C779.703 340.5 802.159 317.521 831.404 301.332C860.65 285.142 894.073 277.309 932.196 277.309C968.753 277.309 1001.65 285.142 1030.38 300.81C1059.1 316.477 1081.56 338.933 1097.75 367.656C1113.94 396.379 1121.77 429.803 1121.77 467.404C1121.25 480.982 1120.2 493.516 1118.64 504.483ZM1020.98 439.203C1020.45 414.135 1011.58 394.29 993.821 379.145C976.064 364.001 954.653 356.689 929.063 356.689C905.04 356.689 884.673 364.001 868.483 378.623C852.294 393.246 841.849 413.613 838.193 439.203H1020.98Z" fill="#005156"/>
<path d="M1237.18 656.454C1212.12 644.965 1192.27 629.82 1177.65 610.497C1163.03 591.174 1155.19 569.763 1153.63 545.74H1251.28C1253.37 560.362 1260.16 572.896 1273.22 582.296C1285.75 592.219 1301.94 596.919 1320.74 596.919C1339.02 596.919 1353.64 593.263 1364.09 585.952C1374.53 578.641 1379.76 569.24 1379.76 557.751C1379.76 545.217 1373.49 535.817 1360.43 529.55C1347.9 523.283 1327.53 516.494 1299.85 509.183C1271.13 502.394 1247.63 495.082 1229.35 487.771C1211.07 480.46 1195.41 468.971 1182.35 453.826C1169.29 438.681 1162.5 417.791 1162.5 392.201C1162.5 370.79 1168.77 351.467 1180.78 333.711C1192.79 315.955 1210.55 302.376 1233.53 291.932C1256.51 281.487 1283.14 276.787 1314.48 276.787C1360.43 276.787 1396.99 288.276 1424.15 311.254C1451.3 334.233 1466.45 365.045 1469.06 403.691H1376.1C1374.53 388.546 1368.27 376.534 1356.78 367.134C1345.29 358.256 1330.14 353.556 1311.34 353.556C1293.59 353.556 1280.01 356.689 1270.61 363.478C1261.21 369.745 1256.51 379.145 1256.51 390.635C1256.51 403.691 1262.77 413.613 1275.83 419.88C1288.89 426.669 1308.73 433.458 1336.41 440.247C1364.09 447.037 1387.07 454.348 1404.82 461.659C1423.1 468.971 1438.25 480.46 1451.82 496.127C1464.88 511.794 1471.67 532.161 1472.19 557.751C1472.19 579.685 1465.92 600.052 1453.91 617.286C1441.9 635.042 1424.15 648.621 1401.17 658.543C1378.19 668.466 1351.55 673.688 1321.26 673.688C1290.45 673.688 1262.25 667.944 1237.18 656.454Z" fill="#005156"/>
<path d="M1845.07 321.177C1873.27 349.9 1887.37 390.635 1887.37 442.336V667.944H1790.23V454.87C1790.23 424.58 1782.4 401.079 1767.26 384.368C1752.11 368.178 1731.22 359.823 1704.59 359.823C1677.95 359.823 1656.54 368.178 1640.87 384.368C1625.21 400.557 1617.9 424.058 1617.9 454.87V666.899H1520.76V283.053H1617.9V331.099C1630.95 314.388 1647.14 301.332 1667.51 291.932C1687.88 282.531 1709.81 277.831 1733.83 277.831C1779.79 277.831 1816.87 291.932 1845.07 321.177Z" fill="#005156"/>
<path d="M2528.16 294.543C2550.09 282.531 2575.16 276.787 2603.36 276.787C2636.26 276.787 2666.03 285.142 2692.66 300.81C2719.3 316.999 2740.19 339.978 2755.85 369.745C2771.52 399.513 2778.83 433.981 2778.83 473.671C2778.83 513.361 2771 547.829 2755.85 578.118C2740.19 608.408 2719.3 631.909 2692.66 648.621C2666.03 665.332 2636.26 673.688 2603.36 673.688C2575.16 673.688 2550.09 667.944 2528.68 656.454C2507.27 644.965 2489.51 630.342 2476.46 612.586V850.205H2379.32V283.053H2476.46V338.411C2488.99 321.177 2506.22 306.554 2528.16 294.543ZM2665.51 413.613C2656.11 396.902 2643.57 383.846 2627.91 374.968C2612.24 366.089 2595.53 361.912 2577.77 361.912C2560.01 361.912 2543.83 366.612 2528.16 375.49C2512.49 384.368 2499.96 397.424 2490.56 414.658C2481.16 431.892 2476.46 451.737 2476.46 475.237C2476.46 498.216 2481.16 518.583 2490.56 535.817C2499.96 553.051 2512.49 566.107 2528.16 574.985C2543.83 583.863 2560.01 588.563 2577.77 588.563C2596.05 588.563 2612.76 583.863 2627.91 574.463C2643.57 565.062 2656.11 552.007 2665.51 534.773C2674.91 517.539 2679.61 497.171 2679.61 473.671C2679.61 450.692 2674.91 430.847 2665.51 413.613Z" fill="#005156"/>
<path d="M2899.47 656.454C2874.4 644.965 2854.56 629.82 2839.93 610.497C2825.31 591.174 2817.48 569.763 2815.91 545.74H2914.09C2916.18 560.362 2922.97 572.896 2936.03 582.296C2948.56 592.219 2964.75 596.919 2983.55 596.919C3001.83 596.919 3016.45 593.263 3026.9 585.952C3037.34 578.641 3042.56 569.24 3042.56 557.751C3042.56 545.217 3036.3 535.817 3023.24 529.55C3010.71 523.283 2990.34 516.494 2962.66 509.183C2933.94 502.394 2910.44 495.082 2892.16 487.771C2873.88 480.46 2858.21 468.971 2845.16 453.826C2831.58 438.681 2825.31 417.791 2825.31 392.201C2825.31 370.79 2831.58 351.467 2843.59 333.711C2855.6 315.955 2873.36 302.376 2896.34 291.932C2919.32 281.487 2945.95 276.787 2977.28 276.787C3023.24 276.787 3059.8 288.276 3086.95 311.254C3114.11 334.233 3129.26 365.045 3131.87 403.691H3038.91C3037.34 388.546 3031.07 376.534 3019.59 367.134C3008.1 358.256 2992.95 353.556 2974.15 353.556C2956.39 353.556 2942.82 356.689 2933.42 363.478C2924.02 369.745 2919.32 379.145 2919.32 390.635C2919.32 403.691 2925.58 413.613 2938.64 419.88C2951.69 426.669 2971.54 433.458 2999.22 440.247C3026.9 447.037 3049.88 454.348 3067.63 461.659C3085.91 468.971 3101.05 480.46 3114.63 496.127C3127.69 511.794 3134.48 532.161 3135 557.751C3135 579.685 3128.73 600.052 3116.72 617.286C3104.71 635.042 3086.95 648.621 3063.98 658.543C3041 668.466 3014.36 673.688 2984.07 673.688C2952.74 673.688 2924.54 667.944 2899.47 656.454Z" fill="#005156"/>
<path d="M310.21 474.193L181.739 634.52C162.416 658.543 133.171 672.644 102.881 672.644H101.314C45.4348 672.644 0 627.209 0 571.329V449.125V299.765V80.947H89.3028V214.118H239.708V297.676H89.3028V539.473C89.3028 552.529 100.27 563.496 113.326 563.496C120.637 563.496 127.426 560.362 132.126 554.618L310.732 335.8V135.26C310.21 51.7017 357.734 0 443.903 0C520.672 0 570.285 42.8236 570.285 113.326C570.285 184.873 512.839 240.23 466.359 296.109L396.379 380.19V493.516L491.949 342.589C525.372 290.887 562.451 277.831 602.141 277.831C666.377 277.831 697.711 320.655 697.711 385.412V490.382V664.81H607.886V391.679C607.886 369.223 602.141 365.567 592.219 365.567C581.774 365.567 576.552 371.834 566.107 388.546L392.724 663.766H310.21V474.193ZM396.379 255.897L449.125 188.006C472.104 158.238 478.893 136.827 478.893 120.115C478.893 91.3918 458.526 80.4248 439.725 80.4248C412.569 80.4248 396.379 100.792 396.379 128.471V255.897Z" fill="#005156"/>
</svg>
