<svg width="1019" height="183" viewBox="0 0 1019 183" fill="none" xmlns="http://www.w3.org/2000/svg">
<path d="M31.3776 27.7951H0V0H95.1077V27.7951H63.5351V138.988H31.3776V27.7951Z" fill="#262626"/>
<path d="M165.967 42.04C167.916 42.4909 169.488 42.954 170.561 43.2586C169.085 42.6666 167.542 42.2574 165.967 42.04Z" fill="white"/>
<path d="M282.35 43.2832V138.988H251.972V125.511C250.724 127.837 249.116 129.951 247.207 131.774C245.163 133.733 242.858 135.402 240.359 136.734C237.675 138.161 234.843 139.293 231.915 140.109C228.947 140.962 225.875 141.396 222.788 141.401C216.263 141.476 209.799 140.154 203.827 137.526C198.23 135.067 193.196 131.488 189.034 127.01C184.83 122.42 181.59 117.033 179.505 111.169C177.21 104.767 176.067 98.0091 176.129 91.2087C176.068 84.4124 177.211 77.6589 179.505 71.2611C181.59 65.3966 184.83 60.01 189.034 55.42C193.192 50.9379 198.227 47.3585 203.827 44.9039C209.799 42.2752 216.263 40.9539 222.788 41.0289C225.875 41.0332 228.947 41.4679 231.915 42.3206C234.86 43.1318 237.695 44.298 240.359 45.7934C242.865 47.1972 245.169 48.9353 247.207 50.9601C249.071 52.7821 250.675 54.8529 251.972 57.1137V43.2832H282.35ZM229.087 115.567C232.308 115.612 235.498 114.933 238.422 113.581C241.126 112.309 243.556 110.521 245.574 108.317C247.607 106.053 249.191 103.423 250.241 100.567C251.37 97.5516 251.94 94.3555 251.923 91.1356C251.969 84.8631 249.71 78.7922 245.574 74.0759C243.58 71.8207 241.146 69.9963 238.422 68.7143C235.484 67.4045 232.304 66.7277 229.087 66.7277C225.871 66.7277 222.691 67.4045 219.753 68.7143C217.033 69.9965 214.603 71.821 212.613 74.0759C210.607 76.3597 209.026 78.9845 207.946 81.8259C206.809 84.8016 206.235 87.9624 206.252 91.1478C206.239 94.3684 206.813 97.5644 207.946 100.579C208.992 103.437 210.576 106.068 212.613 108.329C214.627 110.533 217.053 112.321 219.753 113.593C222.679 114.939 225.868 115.613 229.087 115.567Z" fill="#262626"/>
<path d="M394.736 56.9915C396.034 54.7307 397.637 52.6599 399.501 50.8378C401.562 48.7979 403.9 47.0585 406.447 45.6711C409.121 44.1988 411.954 43.0337 414.891 42.1983C417.893 41.3313 421.003 40.8964 424.128 40.9066C430.652 40.8343 437.116 42.1554 443.088 44.7816C448.684 47.2426 453.718 50.8211 457.881 55.2977C462.077 59.894 465.316 65.2788 467.41 71.1388C469.704 77.5366 470.847 84.2901 470.786 91.0864C470.848 97.8868 469.705 104.644 467.41 111.046C465.316 116.906 462.077 122.291 457.881 126.887C453.714 131.359 448.681 134.937 443.088 137.403C437.121 140.055 430.657 141.401 424.128 141.352C421.003 141.362 417.893 140.927 414.891 140.06C411.956 139.219 409.124 138.054 406.447 136.587C403.914 135.217 401.578 133.512 399.501 131.518C397.59 129.701 395.982 127.591 394.736 125.267V182.258H364.346V43.2828H394.724L394.736 56.9915ZM417.767 66.7398C414.516 66.7045 411.296 67.3825 408.335 68.7261C405.569 69.971 403.082 71.7614 401.024 73.9902C398.994 76.2495 397.414 78.8758 396.369 81.728C394.11 87.8128 394.11 94.5063 396.369 100.591C397.411 103.448 398.991 106.079 401.024 108.341C403.082 110.57 405.569 112.36 408.335 113.605C411.296 114.949 414.516 115.627 417.767 115.591C420.924 115.622 424.047 114.943 426.906 113.605C429.607 112.333 432.032 110.545 434.047 108.341C436.073 106.069 437.645 103.43 438.677 100.567C440.936 94.4819 440.936 87.7885 438.677 81.7036C437.628 78.8507 436.044 76.2244 434.01 73.9658C431.996 71.7624 429.57 69.9741 426.869 68.7017C424.021 67.369 420.911 66.6904 417.767 66.7155V66.7398Z" fill="#262626"/>
<path d="M490.843 0H521.221V138.988H490.843V0Z" fill="#262626"/>
<path d="M571.062 98.4832C571.168 101.27 571.601 104.035 572.354 106.721C573.015 109.262 574.267 111.612 576.007 113.579C577.748 115.546 579.928 117.075 582.37 118.041C585.534 119.264 588.911 119.84 592.301 119.735C597.606 119.735 601.611 118.675 604.316 116.554C606.921 114.587 608.888 111.896 609.97 108.816H639.739C639.069 113.327 637.48 117.653 635.072 121.526C632.526 125.596 629.216 129.134 625.324 131.944C620.985 135.072 616.154 137.452 611.03 138.988C597.669 142.77 583.472 142.392 570.331 137.903C564.231 135.667 558.704 132.105 554.149 127.472C549.735 122.918 546.349 117.47 544.217 111.497C541.902 104.962 540.759 98.0685 540.842 91.1353C540.785 84.4429 541.894 77.7918 544.12 71.4801C546.224 65.5319 549.544 60.0871 553.868 55.4928C558.336 50.8196 563.732 47.1336 569.71 44.6721C576.683 41.8977 584.14 40.547 591.643 40.6996C598.596 40.594 605.506 41.8097 612.005 44.2822C617.736 46.464 623.009 49.6956 627.554 53.8112C631.787 57.6989 635.164 62.4247 637.472 67.6881C639.779 72.9515 640.966 78.6375 640.958 84.3846C640.958 86.3708 640.958 88.4911 640.861 90.7454C640.756 93.3431 640.459 95.9296 639.971 98.4832H571.062ZM591.509 60.9275C586.134 60.7193 580.881 62.5619 576.814 66.082C572.971 69.5345 571.054 74.4981 571.062 80.9726H611.165C611.165 74.758 609.345 69.8595 605.705 66.2769C603.82 64.4779 601.591 63.0771 599.152 62.158C596.713 61.2389 594.114 60.8205 591.509 60.9275Z" fill="#262626"/>
<path d="M170.597 43.282V70.8821C168.831 70.4247 167.041 70.0627 165.236 69.7976C163.458 69.573 161.666 69.4712 159.874 69.493C151.539 69.493 144.857 71.9301 139.829 76.8043C134.8 81.6785 132.282 89.9565 132.274 101.638V138.95H101.871V96.4229C102.237 73.8432 114.057 53.9687 132.237 45.2439C132.737 45.0002 133.224 44.7808 133.724 44.5615C146.507 38.9805 158.802 40.3697 165.942 41.9904C167.916 42.49 169.488 42.953 170.597 43.282Z" fill="#262626"/>
<path d="M729.301 43.282V70.8821C727.534 70.4259 725.744 70.0639 723.939 69.7976C722.161 69.573 720.37 69.4712 718.578 69.493C710.243 69.493 703.561 71.9301 698.533 76.8043C693.504 81.6785 690.986 89.9565 690.978 101.638V138.95H660.611V96.4229C660.977 73.8432 672.797 53.9687 690.978 45.2439C691.477 45.0002 691.965 44.7808 692.464 44.5615C705.247 38.9805 717.542 40.3697 724.683 41.9904C726.657 42.49 728.216 42.953 729.301 43.282Z" fill="#262626"/>
<path d="M308.172 64.7531V138.987H338.55V47.2061L308.964 64.3876C308.713 64.5352 308.447 64.6576 308.172 64.7531Z" fill="#262626"/>
<path d="M338.671 18.778L308.049 0.877574C307.684 0.645692 307.263 0.515308 306.831 0.499824C306.677 0.495637 306.525 0.533566 306.392 0.609494C305.99 0.841018 305.758 1.47466 305.758 2.3642V38.1773C305.712 38.4993 305.746 38.8278 305.856 39.1337C305.967 39.4397 306.151 39.7138 306.392 39.932C306.591 40.0053 306.803 40.0335 307.014 40.0146C307.224 39.9956 307.428 39.9299 307.611 39.8224L307.952 39.664L337.989 22.2022L338.769 21.7513C339.046 21.6327 339.287 21.4427 339.466 21.2009C339.646 20.959 339.759 20.6738 339.792 20.3743C339.75 20.037 339.626 19.7152 339.43 19.4369C339.235 19.1587 338.974 18.9325 338.671 18.778Z" fill="url(#paint0_linear_500_245)"/>
<path d="M801.33 73.4658C801.12 71.8592 800.363 70.3742 799.185 69.2618C797.608 68.0491 795.635 67.4709 793.653 67.6411C792.328 67.6166 791.015 67.8958 789.814 68.4576C788.746 68.967 787.818 69.7281 787.109 70.6753C786.383 71.6293 785.846 72.7128 785.525 73.8679C784.826 76.3792 784.826 79.0335 785.525 81.5448C785.866 82.6949 786.429 83.7671 787.182 84.7008C787.941 85.6393 788.909 86.3865 790.009 86.882C791.324 87.4495 792.746 87.7239 794.177 87.6863C795.906 87.819 797.628 87.3497 799.051 86.358C800.212 85.3365 801.057 84.0049 801.488 82.5196H813.844C813.544 84.6719 812.889 86.7595 811.907 88.6977C810.927 90.6135 809.562 92.3061 807.898 93.6693C806.093 95.1475 804.026 96.2719 801.805 96.9838C799.155 97.8311 796.386 98.2427 793.604 98.2023C790.518 98.2629 787.452 97.6863 784.599 96.5085C782.116 95.4666 779.873 93.9282 778.007 91.9877C776.232 90.105 774.871 87.8719 774.01 85.4319C772.239 80.4129 772.239 74.9389 774.01 69.9198C774.861 67.4837 776.21 65.2512 777.97 63.364C779.833 61.416 782.077 59.8729 784.562 58.831C787.417 57.6589 790.482 57.0825 793.567 57.1373C796.47 57.0816 799.359 57.548 802.097 58.5142C804.342 59.3345 806.41 60.5752 808.19 62.1699C809.798 63.6322 811.092 65.4067 811.992 67.3852C812.868 69.3138 813.428 71.3712 813.649 73.478L801.33 73.4658Z" fill="#262626"/>
<path d="M840.2 98.1909C837.118 98.2435 834.056 97.68 831.195 96.5337C828.658 95.5181 826.347 94.0106 824.395 92.0981C822.534 90.2421 821.066 88.0287 820.082 85.5911C818.083 80.4998 818.083 74.8413 820.082 69.75C821.052 67.3138 822.508 65.1001 824.359 63.2429C826.31 61.326 828.621 59.8144 831.158 58.7952C834.022 57.6563 837.082 57.0932 840.163 57.138C843.297 57.079 846.412 57.6423 849.327 58.7952C851.863 59.8112 854.17 61.3233 856.114 63.2429C857.973 65.0962 859.433 67.3107 860.404 69.75C862.385 74.8444 862.385 80.4966 860.404 85.5911C859.43 88.0287 857.971 90.2427 856.114 92.0981C854.17 94.0139 851.862 95.5219 849.327 96.5337C846.425 97.6875 843.322 98.2509 840.2 98.1909ZM840.2 87.6139C841.519 87.6303 842.827 87.3687 844.038 86.8462C845.166 86.3556 846.173 85.6235 846.987 84.7015C848.237 83.2194 849.07 81.4327 849.404 79.5233C849.738 77.614 849.56 75.6502 848.888 73.8321C848.458 72.6701 847.813 71.5994 846.987 70.6761C846.156 69.7726 845.154 69.0435 844.038 68.5314C842.833 67.985 841.523 67.7104 840.2 67.7272C838.889 67.7081 837.59 67.9829 836.398 68.5314C835.297 69.049 834.307 69.7777 833.486 70.6761C832.654 71.5889 832.02 72.6632 831.621 73.8321C830.761 76.3312 830.761 79.0464 831.621 81.5455C832.034 82.7077 832.667 83.7794 833.486 84.7015C834.287 85.6167 835.276 86.3482 836.386 86.8462C837.587 87.3729 838.888 87.6347 840.2 87.6139Z" fill="#262626"/>
<path d="M918.676 97.142V76.1343C918.792 73.9793 918.302 71.8349 917.262 69.944C916.766 69.2014 916.082 68.6045 915.279 68.2146C914.475 67.8248 913.583 67.6562 912.693 67.7263C911.808 67.7182 910.93 67.8838 910.109 68.2137C909.278 68.5559 908.551 69.1105 908.001 69.8222C907.33 70.7259 906.852 71.7591 906.6 72.8564C906.242 74.406 906.078 75.9942 906.112 77.5843V97.0811H894.146V76.049C894.259 73.9313 893.786 71.8236 892.781 69.9562C892.308 69.2174 891.643 68.6203 890.858 68.2278C890.073 67.8353 889.197 67.662 888.322 67.7263C887.409 67.7127 886.502 67.8783 885.653 68.2137C884.814 68.5601 884.088 69.1341 883.557 69.8709C882.922 70.8133 882.471 71.8677 882.229 72.9782C881.848 74.5741 881.672 76.212 881.705 77.8524V97.142H869.751V58.1485H881.705V63.8513C882.638 61.9317 884.085 60.308 885.885 59.1599C887.98 57.846 890.42 57.1882 892.891 57.2711C895.655 57.0964 898.403 57.8048 900.739 59.2939C902.504 60.5572 903.877 62.2932 904.699 64.3022C905.756 62.213 907.377 60.4614 909.378 59.2452C911.645 57.8851 914.254 57.2003 916.897 57.2711C919.259 57.1797 921.611 57.6342 923.769 58.5994C925.449 59.4051 926.896 60.6255 927.973 62.1453C929.014 63.6775 929.716 65.4139 930.033 67.2389C930.382 69.1976 930.557 71.1835 930.556 73.1732V97.1786L918.676 97.142Z" fill="#262626"/>
<path d="M749.603 89.7944C749.594 88.7074 749.818 87.6311 750.261 86.6383C750.67 85.6834 751.258 84.815 751.991 84.0794C752.735 83.3411 753.612 82.7499 754.575 82.3368C755.585 81.9105 756.671 81.6909 757.767 81.6909C758.864 81.6909 759.949 81.9105 760.96 82.3368C762.884 83.1739 764.418 84.7118 765.249 86.6383C765.675 87.6338 765.895 88.7054 765.895 89.7883C765.895 90.8711 765.675 91.9427 765.249 92.9382C764.406 94.8668 762.859 96.401 760.923 97.2275C759.913 97.6538 758.827 97.8734 757.731 97.8734C756.634 97.8734 755.549 97.6538 754.538 97.2275C753.575 96.8145 752.699 96.2233 751.955 95.485C751.222 94.7529 750.635 93.8888 750.224 92.9382C749.794 91.947 749.582 90.8748 749.603 89.7944Z" fill="#262626"/>
<path d="M762.019 139.049L750.479 106.355H758.424L765.248 128.069L771.743 106.355H777.629L784.124 128.069L790.935 106.355H798.88L787.341 139.049H781.175L774.692 118.504L768.197 139.049H762.019ZM820.448 129.751H803.815C803.962 132.7 805.923 134.382 809.092 134.382C811.285 134.382 812.686 133.675 813.296 132.273H820.302C820.131 133.377 819.72 134.43 819.099 135.358C818.478 136.286 817.662 137.067 816.708 137.647C814.437 139.095 811.783 139.825 809.092 139.743C801.439 139.743 796.723 135.259 796.723 127.789C796.644 126.183 796.898 124.578 797.468 123.075C798.039 121.571 798.913 120.202 800.038 119.052C801.226 117.968 802.618 117.13 804.132 116.586C805.646 116.042 807.253 115.803 808.86 115.884C811.983 115.732 815.043 116.803 817.39 118.869C818.464 119.847 819.313 121.046 819.877 122.385C820.441 123.723 820.706 125.168 820.656 126.619C820.647 127.666 820.578 128.712 820.448 129.751ZM813.576 125.316C813.636 124.679 813.553 124.036 813.334 123.435C813.115 122.834 812.764 122.29 812.308 121.842C811.851 121.393 811.3 121.053 810.696 120.844C810.091 120.636 809.447 120.565 808.811 120.636C808.169 120.578 807.521 120.656 806.91 120.865C806.299 121.074 805.74 121.41 805.268 121.851C804.797 122.292 804.423 122.827 804.173 123.422C803.922 124.017 803.801 124.658 803.815 125.303L813.576 125.316ZM843.235 139.049L842.114 135.076H830.538L829.417 139.049H821.423L832.5 106.355H840.104L851.217 139.049H843.235ZM832.268 129.166H840.481L836.375 114.641L832.268 129.166ZM854.678 139.073V116.542H861.83V121.258C862.115 119.822 862.889 118.53 864.02 117.601C865.151 116.672 866.569 116.164 868.033 116.164C868.663 116.146 869.294 116.208 869.909 116.347V122.976C869.069 122.891 868.362 122.842 867.753 122.842C863.792 122.842 861.83 125.364 861.83 130.36V139.049L854.678 139.073ZM895.548 129.775H878.866C879.012 132.724 880.974 134.406 884.154 134.406C886.348 134.406 887.749 133.699 888.346 132.298H895.353C895.184 133.402 894.774 134.456 894.153 135.384C893.532 136.313 892.714 137.094 891.758 137.672C889.493 139.121 886.842 139.852 884.154 139.768C876.49 139.768 871.774 135.283 871.774 127.814C871.695 126.207 871.948 124.602 872.519 123.099C873.089 121.595 873.964 120.226 875.088 119.077C877.494 116.895 880.666 115.755 883.91 115.908C887.034 115.757 890.093 116.828 892.44 118.894C893.515 119.871 894.363 121.071 894.927 122.409C895.491 123.747 895.757 125.192 895.706 126.644C895.696 127.683 895.627 128.72 895.499 129.751L895.548 129.775ZM888.675 125.34C888.735 124.705 888.653 124.064 888.434 123.464C888.215 122.865 887.866 122.322 887.41 121.875C886.955 121.427 886.406 121.088 885.802 120.88C885.199 120.672 884.557 120.601 883.923 120.673C883.279 120.613 882.63 120.689 882.018 120.898C881.405 121.106 880.844 121.442 880.371 121.883C879.898 122.323 879.524 122.859 879.273 123.455C879.022 124.051 878.9 124.693 878.914 125.34H888.675ZM905.381 139.049L894.414 106.355H902.542L909.317 129.422L916.08 106.355H924.208L913.241 139.049H905.381ZM930.106 114.544C929.53 114.553 928.958 114.448 928.424 114.233C927.89 114.018 927.404 113.699 926.995 113.293C926.586 112.888 926.263 112.405 926.043 111.872C925.824 111.34 925.714 110.769 925.719 110.193C925.702 109.613 925.804 109.035 926.018 108.495C926.233 107.955 926.556 107.465 926.966 107.054C927.377 106.643 927.867 106.321 928.407 106.106C928.947 105.892 929.525 105.79 930.106 105.807C930.69 105.785 931.274 105.882 931.82 106.092C932.367 106.301 932.865 106.619 933.286 107.025C934.094 107.855 934.546 108.968 934.546 110.126C934.546 111.285 934.094 112.397 933.286 113.228C932.873 113.652 932.378 113.987 931.832 114.213C931.285 114.44 930.697 114.552 930.106 114.544ZM926.511 139.061V116.542H933.652V139.049L926.511 139.061ZM955.61 106.367H962.751V139.061H955.646V135.868C954.89 137.068 953.833 138.049 952.581 138.714C951.328 139.379 949.923 139.704 948.506 139.658C947.048 139.72 945.595 139.455 944.254 138.882C942.913 138.308 941.717 137.441 940.756 136.343C938.886 133.888 937.882 130.883 937.9 127.797C937.917 124.711 938.956 121.718 940.853 119.284C941.81 118.178 943.003 117.301 944.345 116.719C945.686 116.137 947.142 115.864 948.603 115.921C950.016 115.846 951.422 116.164 952.665 116.84C953.908 117.515 954.94 118.521 955.646 119.747V117.846L955.61 106.367ZM955.927 127.801C955.927 124.438 953.965 121.916 950.565 121.916C947.165 121.916 945.191 124.353 945.191 127.801C945.191 131.25 947.336 133.736 950.565 133.736C953.794 133.736 955.927 131.201 955.927 127.789V127.801ZM990.68 129.751H974.01C974.144 132.7 976.106 134.382 979.286 134.382C981.48 134.382 982.942 133.675 983.49 132.273H990.497C990.316 133.381 989.895 134.437 989.264 135.365C988.632 136.293 987.805 137.072 986.841 137.647C984.571 139.095 981.917 139.825 979.225 139.743C971.561 139.743 966.845 135.259 966.845 127.789C966.766 126.183 967.019 124.578 967.59 123.075C968.16 121.571 969.035 120.202 970.159 119.052C972.568 116.867 975.745 115.728 978.994 115.884C982.117 115.731 985.177 116.802 987.524 118.869C988.598 119.847 989.446 121.046 990.01 122.385C990.574 123.723 990.84 125.168 990.789 126.619C990.819 127.665 990.782 128.711 990.68 129.751ZM983.819 125.316C983.881 124.674 983.797 124.027 983.575 123.422C983.353 122.817 982.998 122.27 982.536 121.821C982.074 121.371 981.517 121.032 980.906 120.827C980.295 120.622 979.645 120.557 979.006 120.636C978.363 120.578 977.715 120.656 977.105 120.865C976.494 121.074 975.935 121.41 975.463 121.851C974.991 122.292 974.618 122.827 974.367 123.422C974.117 124.017 973.995 124.658 974.01 125.303L983.819 125.316ZM1006.52 139.743C1004.86 139.82 1003.19 139.562 1001.63 138.985C1000.06 138.407 998.633 137.521 997.418 136.38C995.228 134.056 994.008 130.983 994.008 127.789C994.008 124.596 995.228 121.523 997.418 119.198C999.97 117.057 1003.2 115.884 1006.53 115.884C1009.86 115.884 1013.08 117.057 1015.64 119.198C1017.8 121.536 1019 124.604 1019 127.789C1019 130.974 1017.8 134.042 1015.64 136.38C1014.42 137.522 1012.98 138.408 1011.42 138.986C1009.85 139.564 1008.19 139.821 1006.52 139.743ZM1011.89 127.789C1011.89 124.292 1009.85 121.904 1006.52 121.904C1003.19 121.904 1001.16 124.341 1001.16 127.789C1001.16 131.238 1003.17 133.675 1006.52 133.675C1009.87 133.675 1011.83 131.299 1011.83 127.789H1011.89Z" fill="url(#paint1_linear_500_245)"/>
<defs>
<linearGradient id="paint0_linear_500_245" x1="305.819" y1="20.2647" x2="339.89" y2="20.2647" gradientUnits="userSpaceOnUse">
<stop offset="0.06" stop-color="#32B0A7"/>
<stop offset="1" stop-color="#2867D0"/>
</linearGradient>
<linearGradient id="paint1_linear_500_245" x1="750.479" y1="122.769" x2="1018.94" y2="122.769" gradientUnits="userSpaceOnUse">
<stop offset="0.06" stop-color="#32B0A7"/>
<stop offset="1" stop-color="#2867D0"/>
</linearGradient>
</defs>
</svg>
