<svg width="870" height="184" viewBox="0 0 870 184" fill="none" xmlns="http://www.w3.org/2000/svg">
<path d="M50.7479 147.498V140.578L60.7437 147.498H98.4202L119.757 129.236V65.2248L98.4202 46.9632H62.2815L50.7479 55.229V5.82666H0V147.498H50.7479ZM69.2017 130.39H63.0504L50.7479 122.893V74.2594L62.2815 65.6092H69.2017V130.39ZM187.161 36.9674V6.59556H136.605V36.9674H187.161ZM187.161 147.498V46.9632H136.605V147.498H187.161ZM273.786 147.498V124.431H256.485V69.8382H270.71V46.9632H256.485V13.9002H224.576L207.468 46.9632H199.778V69.8382H205.738V129.236L227.267 147.498H273.786ZM400.778 147.498L422.116 129.236V87.5231H365.793V118.087H340.227V35.2374H365.409V65.2248H421.539V24.0882L400.202 5.82666H306.779L285.443 24.0882V129.236L306.779 147.498H400.778ZM535.653 147.498L556.99 129.236V65.2248L535.653 46.9632H459.339L438.001 65.2248V129.236L459.339 147.498H535.653ZM506.434 129.429H488.749V65.0326H506.434V129.429ZM624.393 147.498V84.8319H656.687V46.9632H637.848L624.393 59.458V46.9632H573.837V147.498H624.393ZM718.899 183.444V140.77L728.895 147.498H766.571L787.909 129.236V65.2248L766.571 46.9632H730.241L718.899 55.229V46.9632H668.151V183.444H718.899ZM737.353 130.39H731.202L718.899 122.893V74.0672L730.241 65.6092H737.353V130.39Z" fill="black"/>
<path d="M840.14 33.8379C840.14 30.4542 840.126 27.4135 840.096 24.7155C840.061 22.0174 840.002 19.4494 839.909 17.0106C839.82 14.5718 839.682 12.0566 839.5 9.46545C839.928 10.5631 840.352 11.6603 840.781 12.758C841.205 13.8551 841.649 14.9681 842.107 16.0958L847.82 28.3052H855.41L861.083 16.0958C861.542 15.0898 861.98 14.0764 862.409 13.0552C862.833 12.0339 863.247 11.0047 863.641 9.96869C863.429 13.901 863.286 17.8337 863.208 21.766C863.134 25.6988 863.094 29.7227 863.094 33.8379H870V0H861.172L853.764 15.9588C853.399 16.7513 853.044 17.605 852.689 18.5193C852.339 19.4342 851.999 20.3484 851.664 21.2633C851.358 20.379 851.038 19.4874 850.703 18.5878C850.368 17.6888 850.018 16.8125 849.653 15.9588L842.196 0H833.235V33.8379H840.14ZM819.38 33.8379V6.08176H829.026V0H802.779V6.08176H812.474V33.8379H819.38Z" fill="black"/>
</svg>
