<svg width="753" height="227" viewBox="0 0 753 227" fill="none" xmlns="http://www.w3.org/2000/svg">
<path d="M540.24 146.089C537.854 149.325 535.127 152.291 532.107 154.934C529.719 156.863 527.038 158.391 524.166 159.458C520.98 160.851 517.54 161.555 514.067 161.527C508.161 161.594 502.414 159.6 497.801 155.882C494.741 153.494 492.224 150.475 490.416 147.027C488.856 143.895 487.456 138.936 486.216 132.149L545.99 116.346C545.088 111.582 543.809 106.899 542.164 102.341C540.883 99.0685 539.153 95.9933 537.023 93.2061C529.898 83.7907 519.499 79.083 505.827 79.083C492.012 79.083 480.648 83.823 471.735 93.303C466.657 98.6817 462.911 105.193 460.801 112.306C459.94 104.489 457.013 97.0486 452.327 90.7607C446.292 82.9109 438.54 78.9861 429.071 78.9861C419.262 78.8863 409.734 82.2862 402.171 88.5846C401.345 89.2887 400.563 90.0443 399.831 90.8469C398.901 91.8595 397.747 93.0014 396.379 94.4234C396.183 91.6433 395.747 88.8858 395.075 86.1823C394.237 83.7331 393.238 81.3434 392.082 79.0292L361.26 87.6474L361.453 93.1091C365.307 93.1091 367.951 94.0823 369.383 96.0285C370.815 97.9748 371.527 101.53 371.52 106.694V159.437L327.809 34.8071L299.413 36.6816L302.406 44.7827L264.113 142.513C262.859 145.895 261.926 148.219 261.313 149.483C260.7 150.747 259.888 152.269 258.876 154.05C257.962 155.699 256.834 157.217 255.521 158.564C252.778 161.832 248.731 163.466 243.38 163.466V172.084H286.717V163.466C280.86 163.466 276.906 162.87 274.854 161.678C272.802 160.482 271.776 158.263 271.776 154.988C271.776 153.217 271.962 151.451 272.332 149.72C272.928 147.226 273.677 144.773 274.576 142.373L278.306 131.826H332.48L342.942 161.581L329.68 163.466V172.084H371.531V195.601L362.35 196.915V204.682H404.939V196.926L396.389 195.612V169.757C399.66 171.603 403.104 173.119 406.671 174.282C409.842 175.08 413.106 175.443 416.375 175.359C428.95 175.359 439.598 170.148 448.319 159.728C453.378 153.7 457.066 146.629 459.124 139.012C460.429 147.962 464.523 156.262 470.815 162.712C479.102 171.179 489.842 175.413 503.038 175.413C510.335 175.473 517.571 174.07 524.327 171.287C530.507 168.81 536.005 164.872 540.357 159.803L546.524 151.185L540.24 146.089ZM281.608 122.551L306.916 57.9146L329.359 122.551H281.608ZM428.911 156.722C424.679 164.069 419.075 167.743 412.1 167.743C409.252 167.863 406.413 167.348 403.785 166.234C401.012 164.65 398.519 162.611 396.411 160.202V102.029C398.967 99.2387 401.929 96.8559 405.196 94.962C407.869 93.7043 410.796 93.092 413.745 93.1738C416.953 93.0674 420.128 93.8397 422.934 95.4086C425.74 96.9774 428.072 99.2841 429.68 102.083C433.421 108.044 435.291 116.428 435.291 127.237C435.255 139.54 433.118 149.368 428.879 156.722H428.911ZM486.12 109.214C486.929 105.402 488.219 101.709 489.956 98.2262C493.569 90.8433 498.681 87.1518 505.293 87.1518C507.292 87.081 509.278 87.4962 511.084 88.3625C512.891 89.2288 514.463 90.5206 515.67 92.1288C518.192 95.4468 519.453 99.86 519.453 105.368C519.453 112.127 516.208 116.256 509.717 117.757L484.869 124.135C484.771 119.132 485.18 114.133 486.088 109.214H486.12Z" fill="#292523"/>
<path d="M739.738 91.9029C730.903 83.1124 719.072 78.7171 704.246 78.7171C689.419 78.7171 677.588 83.1124 668.753 91.9029C659.911 100.693 655.49 112.432 655.49 127.119C655.49 139.824 658.857 150.327 665.59 158.629L665.205 158.888C660.727 162.033 656.794 163.595 653.449 163.595C645.348 163.595 641.301 158.012 641.308 146.844V90.9226H664.094V83.1986H641.287V46.0542L616.439 54.5431V85.6117C615.882 84.227 615.028 82.9836 613.938 81.9705C611.744 79.8957 608.824 78.7803 605.816 78.8679C599.468 78.8679 593.365 82.5701 587.509 89.9746C585.37 92.6402 583.521 95.5295 581.994 98.5928C580.267 102.411 578.803 106.346 577.612 110.367C577.76 104.823 577.402 99.2771 576.544 93.7989C575.45 88.9077 573.949 84.1183 572.055 79.482L541.896 86.7751V91.8598C547.496 93.1095 550.919 96.309 552.166 101.458C553.42 105.602 554.043 111.818 554.036 120.106V163.035L544.888 164.35V172.074H587.477V164.35L578.927 163.035V135.543C579.055 127.195 580.965 118.972 584.527 111.434C585.644 108.655 586.988 105.974 588.545 103.419C590.383 100.789 592.412 98.3012 594.616 95.975C598.727 99.1206 602.464 100.69 605.827 100.683C608.87 100.842 611.855 99.7944 614.141 97.7633C615.161 96.8023 615.951 95.6197 616.45 94.3052V150.604C616.45 157.003 617.198 161.753 618.694 164.824C620.19 167.894 622.969 170.436 627.009 172.451C631.539 174.559 636.491 175.588 641.479 175.456C646.045 175.558 650.595 174.877 654.935 173.442C659.78 171.491 664.31 168.826 668.379 165.535C668.946 165.114 669.769 164.457 670.517 163.843C679.152 171.521 690.395 175.363 704.246 175.37C719.065 175.37 730.896 170.978 739.738 162.195C748.58 153.412 753.001 141.72 753.001 127.119C753.001 112.425 748.58 100.686 739.738 91.9029ZM720.501 157.143C716.483 164.619 711.078 168.353 704.288 168.346C697.377 168.346 691.945 164.612 687.99 157.143C684.036 149.673 682.045 139.666 682.016 127.119C682.016 114.443 683.993 104.389 687.948 96.9553C691.902 89.5222 697.335 85.8163 704.246 85.8379C711.043 85.8379 716.447 89.576 720.458 97.0523C724.469 104.529 726.475 114.551 726.475 127.119C726.475 139.673 724.469 149.681 720.458 157.143H720.501Z" fill="#292523"/>
<path d="M190.369 180.26H212.064L209.072 81.5926C208.227 59.7938 199.091 39.1591 183.559 23.9676C168.026 8.77622 147.289 0.193721 125.647 0C104.112 0 86.2326 9.45845 70.4689 23.9478C61.4061 32.3182 39.0804 52.237 33.2558 57.2355C29.7611 60.2303 26.0419 63.0205 22.7823 66.4139C15.2194 74.132 9.30164 83.3272 5.39255 93.4347C1.48347 103.542 -0.334428 114.348 0.0505293 125.19L3.13915 226.992H170.096L169.39 203.605H191.085L190.369 180.26ZM126.064 12.2055C144.463 12.3686 162.093 19.6645 175.298 32.5798C188.503 45.4952 196.269 63.0386 196.985 81.5711L199.614 168.055H189.995L188.039 103.418C187.314 81.2439 178.008 60.2364 162.112 44.8899C146.081 29.1941 126.032 20.6729 104.155 20.6729C99.5888 20.7844 95.0406 21.2926 90.5609 22.1918C100.853 15.502 113.955 12.1732 126.064 12.1732V12.2055ZM47.7371 62.5572C48.2313 61.8861 48.7897 61.2654 49.4043 60.7043C47.8833 67.5405 47.1659 74.5335 47.2668 81.5388L50.2806 180.26H156.191L156.533 191.248H38.6102L35.9383 103.418C35.3759 88.8691 39.5165 74.5294 47.7371 62.5572ZM61.9298 168.055L59.3007 81.5926C58.8687 72.925 60.043 64.2521 62.7634 56.0182C68.8534 54.4466 75.1155 53.654 81.4019 53.659C100.368 53.8403 118.538 61.3672 132.15 74.681C145.762 87.9948 153.773 106.076 154.524 125.179L155.828 168.055H61.9298ZM167.007 125.222C166.127 102.745 156.7 81.4708 140.681 65.8091C124.662 50.1474 103.279 41.299 80.9638 41.098C77.1212 41.2026 73.2934 41.6205 69.5177 42.3476C69.6591 42.2287 69.8092 42.1207 69.9666 42.0244C70.7365 41.4941 71.5358 41.0086 72.3605 40.5701C82.0416 35.4923 92.8038 32.8671 103.717 32.9215C122.408 33.1006 140.315 40.521 153.727 53.645C167.139 66.7691 175.028 84.591 175.76 103.418L177.726 168.055H168.311L167.007 125.222ZM157.228 214.377H15.2799L12.5653 125.201C12.0844 109.419 16.0173 93.3026 26.3839 80.6123C24.5405 88.0709 23.625 95.7317 23.6587 103.418L26.7046 203.605H156.907L157.228 214.377ZM168.674 180.217H178.09L178.421 191.205H169.005L168.674 180.217Z" fill="#292523"/>
</svg>
