<svg width="1829" height="145" viewBox="0 0 1829 145" fill="none" xmlns="http://www.w3.org/2000/svg">
<path d="M1696.43 98.6031C1696.43 131.331 1669.11 144.127 1636.63 144.127C1600.95 144.127 1577.82 129.362 1562.56 115.828L1576.59 99.5873C1587.66 109.676 1606.61 123.949 1636.88 123.949C1657.06 123.949 1673.05 117.059 1673.05 101.802C1673.05 84.823 1657.55 81.3779 1633.93 79.4094C1604.15 77.4408 1570.19 74.734 1570.19 42.0063C1570.19 9.77069 1599.72 0.419922 1624.82 0.419922C1653.37 0.419922 1676.5 11.7393 1687.32 20.1058L1673.3 36.3466C1665.92 29.4565 1648.94 20.5979 1624.08 20.5979C1607.84 20.5979 1593.57 25.7654 1593.57 40.0377C1593.57 54.8021 1613.75 55.2942 1634.17 56.7706C1658.29 58.2471 1696.43 60.7078 1696.43 98.6031Z" fill="black"/>
<path d="M1516.3 48.1572C1515.07 48.4032 1513.84 47.665 1513.1 46.6807C1515.32 42.7436 1520.24 31.1781 1518.02 18.1363C1517.29 13.7069 1516.06 8.78548 1513.35 4.35617C1515.07 2.63366 1517.53 0.911145 1520.98 0.418999C1526.88 -0.565293 1532.05 2.63366 1533.04 10.508C1535.25 25.5184 1522.7 47.1729 1516.3 48.1572Z" fill="black"/>
<path d="M1403.6 0.17334C1360.78 0.17334 1327.56 32.1628 1327.56 71.7806C1327.56 111.89 1361.03 143.88 1403.6 143.88C1446.42 143.88 1480.37 111.89 1480.37 71.7806C1480.37 32.1628 1446.17 0.17334 1403.6 0.17334ZM1403.6 123.21C1374.56 123.21 1351.92 100.079 1351.92 71.7806C1351.92 43.7283 1374.56 20.8435 1403.6 20.8435C1432.88 20.8435 1455.77 43.7283 1455.77 71.7806C1455.77 100.079 1432.88 123.21 1403.6 123.21Z" fill="black"/>
<path d="M1292.62 4.35596V139.696H1271.95L1193.95 45.9423H1193.7V139.696H1170.32V4.35596H1190.99L1269 98.3559H1269.25V4.35596H1292.62Z" fill="black"/>
<path d="M1123.33 4.35596H1100.19V139.696H1123.33V4.35596Z" fill="black"/>
<path d="M1032.77 84.5758C1050.73 77.9318 1062.54 63.9056 1062.54 45.6962C1062.54 35.3612 1058.61 25.7643 1051.71 18.6282C1043.1 9.27742 1030.55 4.35596 1012.59 4.35596H938.029V139.696H961.406V87.7747H1009.64L1038.67 139.942H1065.5L1032.77 84.5758ZM1016.77 67.1046H976.171C967.804 67.1046 961.16 60.4606 961.16 52.0941V25.0261H1012.59C1019.97 25.0261 1027.35 25.7643 1033.75 32.4083C1037.2 36.0994 1039.41 40.7748 1039.41 45.9423C1039.41 57.5077 1028.83 67.1046 1016.77 67.1046Z" fill="black"/>
<path d="M904.812 119.026V139.696H789.896V4.35596H899.89V25.0261H813.272V47.1727C813.272 53.5706 818.44 58.7381 824.838 58.7381H865.44V79.4082H813.272V107.461C813.272 113.858 818.44 118.78 824.838 118.78H904.812V119.026Z" fill="black"/>
<path d="M726.654 65.136C736.497 61.1988 743.879 50.1255 743.879 37.5758C743.879 29.2093 740.434 22.0732 734.775 16.1675C728.131 9.52349 717.549 4.35596 702.293 4.35596H620.351V139.696H704.015C723.455 139.696 732.314 134.283 738.958 128.131C748.062 119.518 751.261 109.183 751.261 99.3401C751.507 82.6072 742.403 68.8271 726.654 65.136ZM643.481 25.0261H699.586C705.984 25.0261 710.905 26.5025 714.597 30.1936C717.549 33.1465 719.272 37.3297 719.272 41.7591C719.272 46.6805 717.303 51.848 713.612 55.2931C709.921 58.9842 705 60.2145 699.34 60.2145H656.031C648.895 60.2145 642.989 54.3088 642.989 47.1727V25.0261H643.481ZM721.487 112.874C717.303 117.057 711.152 119.026 704.754 119.026H656.523C649.387 119.026 643.481 113.12 643.481 105.984V78.9161H704.754C711.644 78.9161 717.549 81.869 721.733 86.0522C725.178 89.4972 727.146 93.9265 727.146 98.848C727.146 104.016 725.178 109.183 721.487 112.874Z" fill="black"/>
<path d="M552.681 84.5758C570.645 77.9318 582.456 63.9056 582.456 45.6962C582.456 35.3612 578.519 25.7643 571.629 18.6282C563.017 9.27742 550.467 4.35596 532.503 4.35596H457.943V139.696H481.32V87.7747H529.551L558.587 139.942H585.409L552.681 84.5758ZM536.687 67.1046H494.362C486.98 67.1046 481.074 61.1988 481.074 53.8166V25.0261H532.503C539.886 25.0261 547.268 25.7643 553.666 32.4083C557.111 36.0994 559.325 40.7748 559.325 45.9423C559.325 57.5077 548.99 67.1046 536.687 67.1046Z" fill="black"/>
<path d="M366.648 4.35596H345.486L282.737 139.696H307.099L323.339 103.277H387.81L404.297 139.696H429.889L366.648 4.35596ZM344.994 84.5758C338.596 84.5758 334.413 77.9318 337.119 72.2721L355.083 32.1622H356.313L379.444 84.5758H344.994Z" fill="black"/>
<path d="M237.953 65.136C247.796 61.1988 255.178 50.1255 255.178 37.5758C255.178 29.2093 251.979 22.0732 246.073 16.1675C239.429 9.52349 228.848 4.35596 213.592 4.35596H131.649V139.696H215.314C234.754 139.696 243.613 134.283 250.257 128.131C259.361 119.518 262.806 109.183 262.806 99.3401C262.806 82.6072 253.948 68.8271 237.953 65.136ZM155.026 25.0261H211.131C217.529 25.0261 222.45 26.5025 226.141 30.1936C229.094 33.1465 230.817 37.3297 230.817 41.7591C230.817 46.6805 228.848 51.848 225.157 55.2931C221.466 58.9842 216.545 60.2145 210.885 60.2145H167.33C160.44 60.2145 155.026 54.8009 155.026 47.9109V25.0261ZM232.785 112.874C228.602 117.057 222.45 119.026 216.052 119.026H167.576C160.44 119.026 154.78 113.366 154.78 106.23V78.9161H216.052C222.943 78.9161 228.848 81.869 233.031 86.0522C236.23 89.4972 238.445 93.9265 238.445 98.848C238.445 104.016 236.477 109.183 232.785 112.874Z" fill="black"/>
<path d="M50.9371 104.508C51.6753 105 52.1675 105.739 52.1675 106.723C52.1675 107.707 51.6753 108.446 50.9371 108.938C50.691 109.184 50.445 109.184 50.1989 109.184C49.9528 109.184 49.7068 109.43 49.4607 109.43C48.9685 109.43 48.4764 109.184 48.2303 109.184C48.2303 109.184 47.9842 109.184 47.9842 108.938L2.21466 76.456C0.738219 75.4717 0 73.9953 0 72.2728C0 70.7963 0.738219 69.0738 2.21466 68.0895L47.9842 35.854L48.2303 35.6079C48.7225 35.3618 48.9685 35.3618 49.4607 35.3618C49.7068 35.3618 49.9528 35.3618 50.1989 35.3618C50.445 35.3618 50.691 35.6079 50.9371 35.6079C51.6753 36.1 52.1675 36.8383 52.1675 37.8225C52.1675 38.8068 51.6753 39.5451 50.9371 40.0372L48.9685 41.5136L47.246 42.744C44.2931 44.7126 41.5863 47.1733 39.6178 49.8801C35.1884 55.5398 32.4816 62.4298 31.9895 70.0581C31.9895 70.3042 31.9895 70.7963 31.9895 71.0424C31.9895 71.2885 31.9895 71.7806 31.9895 72.0267C31.9895 72.2728 31.9895 72.7649 31.9895 73.011C31.9895 73.2571 31.9895 73.7492 31.9895 73.9953C32.4816 81.6235 35.1884 88.5136 39.6178 94.1733C41.8324 96.8801 44.5392 99.3408 47.246 101.555L48.9685 102.786L50.9371 104.508Z" fill="black"/>
<path d="M1828.08 72.2728C1828.08 73.9953 1827.34 75.4717 1825.86 76.456L1780.09 108.692L1779.85 108.938C1779.36 109.184 1779.11 109.184 1778.62 109.184C1778.37 109.184 1778.12 109.184 1777.88 108.938C1777.63 108.938 1777.39 108.692 1777.14 108.692C1776.4 108.199 1775.91 107.461 1775.91 106.477C1775.91 105.493 1776.4 104.754 1777.14 104.262L1779.11 102.786L1780.83 101.555C1783.78 99.5869 1786.49 97.1262 1788.46 94.1733C1792.89 88.5136 1795.6 81.6235 1796.09 73.9953C1796.09 73.7492 1796.09 73.2571 1796.09 73.011C1796.09 72.7649 1796.09 72.2728 1796.09 72.0267C1796.09 71.7806 1796.09 71.5345 1796.09 71.0424C1796.09 70.7963 1796.09 70.3042 1796.09 70.0581C1795.6 62.4298 1792.89 55.2937 1788.46 49.8801C1786.25 47.1733 1783.54 44.7126 1780.83 42.744L1779.11 41.5136L1777.14 40.0372C1776.4 39.5451 1775.91 38.8068 1775.91 37.8225C1775.91 36.8383 1776.4 36.1 1777.14 35.6079C1777.39 35.3618 1777.63 35.3618 1777.88 35.3618C1778.12 35.3618 1778.37 35.3618 1778.62 35.3618C1779.11 35.3618 1779.6 35.3618 1779.85 35.6079L1780.09 35.854L1825.86 68.0895C1827.34 69.0738 1828.08 70.5503 1828.08 72.2728Z" fill="black"/>
</svg>
