<svg width="622" height="207" viewBox="0 0 622 207" fill="none" xmlns="http://www.w3.org/2000/svg">
<path d="M71.8963 140.243C61.792 140.243 52.3972 138.464 43.7216 134.91C35.0427 131.355 27.4296 126.374 20.8889 119.97C14.3449 113.57 9.2296 106.134 5.53647 97.6598C1.84657 89.1891 0 80.0391 0 70.2067C0 60.3775 1.84657 51.2275 5.53647 42.7568C9.2296 34.286 14.3449 26.8502 20.8889 20.4462C27.4296 14.0455 35.0394 9.0678 43.7216 5.50678C52.4004 1.95223 61.792 0.17334 71.8963 0.17334C82.0006 0.17334 91.4246 1.95223 100.168 5.50678C108.912 9.06456 116.554 14.0422 123.098 20.4462C129.639 26.847 134.725 34.286 138.353 42.7568C141.978 51.2308 143.793 60.3807 143.793 70.2067C143.793 80.0359 141.978 89.1891 138.353 97.6566C134.725 106.131 129.639 113.563 123.098 119.967C116.554 126.368 108.912 131.349 100.168 134.907C91.4278 138.464 82.0006 140.243 71.8963 140.243ZM71.8963 114.44C78.1163 114.44 83.8148 113.308 88.9949 111.044C94.175 108.783 98.7104 105.678 102.598 101.732C106.485 97.7892 109.527 93.0994 111.73 87.6657C113.93 82.232 115.035 76.4134 115.035 70.2067C115.035 63.8706 113.933 58.0164 111.73 52.6506C109.527 47.2848 106.485 42.6306 102.598 38.6815C98.7104 34.7388 94.175 31.6338 88.9949 29.3698C83.8115 27.109 78.1131 25.9737 71.8963 25.9737C65.8059 25.9737 60.1722 27.109 54.9921 29.3698C49.8088 31.6338 45.2766 34.7388 41.389 38.6815C37.5015 42.6274 34.4563 47.2848 32.2566 52.6506C30.0537 58.0196 28.9523 63.8059 28.9523 70.0126C28.9523 76.3519 30.0505 82.2352 32.2566 87.6657C34.4563 93.0994 37.5048 97.786 41.389 101.732C45.2766 105.678 49.8088 108.783 54.9921 111.044C60.1722 113.308 65.8059 114.44 71.8963 114.44Z" fill="black"/>
<path d="M163.224 138.109V2.30811H191.398V113.279H265.822V138.112H163.224V138.109Z" fill="black"/>
<path d="M294.583 138.109V27.1382H248.724V2.30811H368.423V27.1382H322.758V138.109H294.583Z" fill="black"/>
<path d="M384.16 138.109V2.30811H450.617C459.814 2.30811 467.943 4.087 475.005 7.64478C482.064 11.2026 487.568 16.1511 491.52 22.4872C495.469 28.8265 497.446 36.1329 497.446 44.4096C497.446 53.0777 495.048 60.7075 490.257 67.3023C485.462 73.8971 479.051 78.8134 471.02 82.0477L501.139 138.115H469.66L443.037 86.123H412.335V138.109H384.16ZM412.335 63.0297H448.087C454.433 63.0297 459.52 61.3511 463.342 57.9842C467.162 54.6237 469.073 50.225 469.073 44.7913C469.073 39.3576 467.162 34.9621 463.342 31.5984C459.52 28.2379 454.433 26.556 448.087 26.556H412.335V63.0297Z" fill="black"/>
<path d="M516.101 138.109V2.30811H620.642V26.7501H544.275V57.7901H594.602V81.4591H544.275V113.663H621.42V138.109H516.101Z" fill="black"/>
<path d="M308.596 206.194C306.986 206.194 305.742 205.755 304.864 204.881C303.986 204.005 303.549 202.727 303.549 201.045V171.739C303.549 170.06 303.986 168.779 304.864 167.903C305.742 167.026 306.986 166.59 308.596 166.59C310.206 166.59 311.45 167.03 312.328 167.903C313.206 168.779 313.643 170.057 313.643 171.739V201.045C313.643 202.724 313.213 204.005 312.354 204.881C311.496 205.758 310.242 206.194 308.596 206.194Z" fill="#6FB0E2"/>
<path d="M347.278 206.195C345.813 206.195 344.689 205.794 343.902 204.988C343.115 204.186 342.723 203.054 342.723 201.592V171.189C342.723 169.692 343.144 168.55 343.986 167.764C344.828 166.978 346.017 166.587 347.553 166.587C348.797 166.587 349.801 166.833 350.572 167.328C351.34 167.819 352.033 168.634 352.658 169.766L363.469 189.214L374.276 169.766C374.934 168.634 375.637 167.822 376.388 167.328C377.137 166.836 378.154 166.587 379.434 166.587C380.859 166.587 381.977 166.978 382.78 167.764C383.584 168.55 383.989 169.692 383.989 171.189V201.592C383.989 203.054 383.603 204.186 382.835 204.988C382.068 205.79 380.934 206.195 379.434 206.195C377.969 206.195 376.845 205.794 376.058 204.988C375.271 204.186 374.879 203.054 374.879 201.592V184.719L367.198 198.086C366.686 198.888 366.145 199.493 365.578 199.894C365.011 200.295 364.253 200.496 363.301 200.496C362.387 200.496 361.635 200.295 361.052 199.894C360.466 199.493 359.935 198.892 359.462 198.086L351.836 184.939V201.592C351.836 203.054 351.45 204.186 350.682 204.988C349.911 205.794 348.777 206.195 347.278 206.195Z" fill="#6FB0E2"/>
<path d="M418.111 206.195C416.501 206.195 415.257 205.755 414.379 204.882C413.501 204.005 413.063 202.744 413.063 201.101V172.176C413.063 170.533 413.501 169.272 414.379 168.395C415.257 167.519 416.517 167.082 418.166 167.082H431.662C436.052 167.082 439.443 168.204 441.841 170.452C444.235 172.697 445.433 175.792 445.433 179.738C445.433 183.681 444.235 186.776 441.841 189.024C439.443 191.268 436.052 192.394 431.662 192.394H423.158V201.104C423.158 202.747 422.727 204.009 421.869 204.885C421.01 205.758 419.76 206.195 418.111 206.195ZM423.161 184.667H429.909C433.858 184.667 435.835 183.024 435.835 179.738C435.835 176.452 433.858 174.809 429.909 174.809H423.161V184.667Z" fill="#6FB0E2"/>
<path d="M469.854 206.194C468.134 206.194 466.874 205.609 466.067 204.441C465.26 203.274 465.26 201.812 466.067 200.059L479.728 170.697C480.386 169.274 481.189 168.233 482.142 167.576C483.091 166.92 484.209 166.59 485.488 166.59C486.732 166.59 487.827 166.92 488.78 167.576C489.732 168.233 490.536 169.274 491.193 170.697L504.855 200.059C505.697 201.847 505.732 203.319 504.965 204.467C504.197 205.619 502.989 206.194 501.343 206.194C499.879 206.194 498.754 205.865 497.967 205.208C497.18 204.551 496.477 203.491 495.855 202.032L494.099 197.869H476.816L475.06 202.032C474.402 203.494 473.725 204.551 473.029 205.208C472.342 205.865 471.279 206.194 469.854 206.194ZM485.381 177.6L480.114 190.146H490.759L485.492 177.6H485.381Z" fill="#6FB0E2"/>
<path d="M550.4 206.305C546.121 206.305 542.444 205.483 539.373 203.84C536.302 202.197 533.95 199.878 532.324 196.883C530.694 193.888 529.881 190.382 529.881 186.365C529.881 182.348 530.694 178.852 532.324 175.876C533.95 172.901 536.302 170.591 539.373 168.945C542.444 167.302 546.121 166.48 550.4 166.48C552.082 166.48 553.831 166.671 555.639 167.056C557.45 167.441 559.05 168.014 560.44 168.783C561.464 169.33 562.176 170.025 562.578 170.866C562.98 171.707 563.126 172.564 563.019 173.441C562.912 174.317 562.588 175.103 562.06 175.795C561.528 176.491 560.861 176.957 560.058 177.193C559.251 177.432 558.373 177.312 557.424 176.837C555.266 175.779 553.054 175.249 550.786 175.249C547.384 175.249 544.822 176.206 543.105 178.124C541.385 180.042 540.526 182.791 540.526 186.368C540.526 189.984 541.385 192.75 543.105 194.668C544.825 196.586 547.384 197.543 550.786 197.543C551.738 197.543 552.762 197.427 553.857 197.187C554.955 196.951 556.034 196.576 557.093 196.065C558.192 195.59 559.17 195.463 560.029 195.68C560.887 195.9 561.593 196.337 562.141 196.993C562.688 197.65 563.028 198.41 563.155 199.267C563.281 200.124 563.164 200.975 562.798 201.816C562.432 202.657 561.755 203.333 560.767 203.844C559.487 204.61 557.903 205.212 556.021 205.652C554.139 206.085 552.266 206.305 550.4 206.305Z" fill="#6FB0E2"/>
<path d="M604.171 206.195C602.56 206.195 601.316 205.755 600.439 204.882C599.561 204.005 599.123 202.744 599.123 201.101V175.3H590.509C587.73 175.3 586.34 173.932 586.34 171.193C586.34 168.453 587.73 167.085 590.509 167.085H617.832C620.611 167.085 622.001 168.453 622.001 171.193C622.001 173.932 620.611 175.3 617.832 175.3H609.218V201.101C609.218 202.744 608.787 204.005 607.929 204.882C607.067 205.758 605.816 206.195 604.171 206.195Z" fill="#6FB0E2"/>
</svg>
