<svg width="372" height="164" viewBox="0 0 372 164" fill="none" xmlns="http://www.w3.org/2000/svg">
<path d="M372 163.855V161.905H368.504C359.686 161.905 352.541 154.772 352.541 145.97V3.75156C352.541 3.21426 352.105 2.7793 351.566 2.7793H322.234C321.855 2.7793 321.506 2.99934 321.347 3.3422L276.914 99.06C276.575 99.7918 275.545 99.8174 275.166 99.1061L224.406 3.29614C224.237 2.97887 223.904 2.7793 223.545 2.7793H186.447C185.908 2.7793 185.473 3.21426 185.473 3.75156V163.721H190.159V42.9649C190.159 41.9517 191.517 41.614 191.993 42.5044L254.416 158.68H254.631L308.312 42.4686C308.747 41.5219 310.172 41.8341 310.172 42.8779V134.272C310.172 150.611 323.439 163.855 339.807 163.855H372Z" fill="#292523"/>
<path d="M115.585 84.4103V86.452C124.674 86.452 132.045 93.8055 132.045 102.883V138.684C123.556 143.074 114.391 145.26 104.544 145.26C98.0281 145.26 91.5486 144.129 85.1101 141.861C78.6665 139.594 72.6124 135.971 66.9275 130.987C61.2477 126.003 56.1676 119.509 51.7027 111.506C47.2327 103.503 43.7827 93.7645 41.3632 82.2866C38.6361 69.908 37.534 59.0747 38.0671 49.787C38.5951 40.4992 40.2252 32.7619 42.9523 26.5702C45.6794 20.3783 49.3498 15.7369 53.9736 12.641C58.5923 9.5451 63.6314 7.99969 69.0856 7.99969C74.0837 7.99969 79.2714 9.28411 84.6538 11.853C90.0313 14.427 95.2189 18.3211 100.222 23.5356C105.22 28.7552 109.88 35.2182 114.196 42.9351C118.517 50.6468 122.039 59.6479 124.766 69.9336L128.401 68.3472C135.977 65.021 141.77 60.5588 145.789 54.9605C149.803 49.3674 151.812 43.6157 151.812 37.7206C151.812 33.1816 150.598 29.098 148.178 25.4699C145.752 21.8419 142.569 18.6282 138.633 15.8291C134.691 13.0299 130.262 10.676 125.335 8.76217C120.409 6.85344 115.411 5.2722 110.336 4.0236C105.256 2.775 100.412 1.87948 95.7931 1.33194C91.1692 0.784397 87.1196 0.513184 83.6338 0.513184C71.9665 0.513184 61.0221 2.3298 50.7955 5.95792C40.5687 9.58603 31.7055 14.8466 24.2058 21.7241C16.7063 28.6069 10.7957 37.1168 6.47951 47.2488C2.15812 57.386 0 69.0278 0 82.1893C0 95.3509 2.15812 106.767 6.47951 116.899C10.7957 127.032 16.7063 135.583 24.2058 142.536C31.7055 149.496 40.5687 154.788 50.7955 158.42C61.0221 162.049 71.9665 163.866 83.6338 163.866C94.3885 163.866 104.123 162.505 112.838 159.781C121.547 157.059 129.313 153.053 136.13 147.756H136.356L166.586 163.41V84.4103H115.58H115.585Z" fill="#292523"/>
</svg>
