<svg width="168" height="70" viewBox="0 0 168 70" fill="none" xmlns="http://www.w3.org/2000/svg">
<g clip-path="url(#clip0_884_2)">
<mask id="mask0_884_2" style="mask-type:luminance" maskUnits="userSpaceOnUse" x="0" y="0" width="168" height="70">
<path d="M168 0H0V70H168V0Z" fill="white"/>
</mask>
<g mask="url(#mask0_884_2)">
<mask id="mask1_884_2" style="mask-type:luminance" maskUnits="userSpaceOnUse" x="0" y="0" width="255" height="70">
<path d="M255 0H0V69.1525H255V0Z" fill="white"/>
</mask>
<g mask="url(#mask1_884_2)">
<path d="M99.8127 54.2865H92.7187V37.5081L82.269 54.244H74.4954C71.0121 50.8883 68.3359 45.4937 68.3359 39.7169C68.3359 29.5224 75.5573 22.5137 86.6868 22.5137C91.5718 22.5137 96.6693 24.1278 99.7702 26.2516V40.439V54.2865H99.8127ZM78.276 47.4901L89.7877 29.6073C88.5134 29.225 87.2815 29.1401 85.9221 29.1401C79.0831 29.1401 75.6423 33.7701 75.6423 39.2496C75.5998 42.308 76.2795 45.069 78.276 47.4901Z" fill="#F6FDEA"/>
<path d="M11.7966 53.3944C9.75762 52.46 8.14343 51.2281 6.95403 49.6565C5.76462 48.0848 5.12744 46.3433 5 44.3893H12.9435C13.1134 45.5787 13.6657 46.5981 14.7276 47.3627C15.7471 48.1698 17.064 48.5521 18.5932 48.5521C20.08 48.5521 21.2694 48.2547 22.1189 47.6601C22.9685 47.0654 23.3933 46.3008 23.3933 45.3663C23.3933 44.3468 22.8836 43.5823 21.8216 43.0725C20.8021 42.5628 19.1454 42.0106 16.8941 41.4159C14.5577 40.8637 12.6462 40.2691 11.1594 39.6744C9.67266 39.0797 8.3983 38.1452 7.33633 36.9134C6.27436 35.6815 5.72214 33.9825 5.72214 31.9011C5.72214 30.1595 6.23189 28.5879 7.2089 27.1437C8.18591 25.6994 9.63019 24.595 11.4993 23.7455C13.3683 22.896 15.5347 22.5137 18.0835 22.5137C21.8216 22.5137 24.7951 23.4482 27.004 25.3172C29.2129 27.1861 30.4448 29.6923 30.6572 32.8356H23.096C22.9685 31.6038 22.4588 30.6268 21.5242 29.8622C20.5897 29.1401 19.3578 28.7578 17.8286 28.7578C16.3843 28.7578 15.2799 29.0127 14.5152 29.5649C13.7506 30.0746 13.3683 30.8392 13.3683 31.7737C13.3683 32.8356 13.8781 33.6426 14.94 34.1524C16.002 34.7046 17.6162 35.2568 19.8676 35.809C22.1189 36.3612 23.988 36.9559 25.4323 37.5505C26.919 38.1452 28.1509 39.0797 29.2554 40.354C30.3173 41.6283 30.8696 43.2849 30.912 45.3663C30.912 47.1503 30.4023 48.8069 29.4253 50.2087C28.4483 51.6529 27.004 52.7573 25.1349 53.5644C23.2659 54.3714 21.0995 54.7962 18.6357 54.7962C16.1294 54.7962 13.8356 54.3289 11.7966 53.3944Z" fill="#F6FDEA"/>
<path d="M61.2421 26.1232C63.5359 28.4595 64.6829 31.7727 64.6829 35.9779V54.328H56.7818V36.9974C56.7818 34.5337 56.1446 32.6222 54.9128 31.263C53.6809 29.9462 51.9817 29.2665 49.8153 29.2665C47.6489 29.2665 45.9073 29.9462 44.6329 31.263C43.3585 32.5797 42.7638 34.4912 42.7638 36.9974V54.243H34.8628V23.0224H42.7638V26.9303C43.8258 25.571 45.1426 24.5091 46.7993 23.7445C48.456 22.9799 50.2401 22.5977 52.1941 22.5977C55.9323 22.5977 58.9482 23.7445 61.2421 26.1232Z" fill="#F6FDEA"/>
<path d="M116.805 23.9579C118.589 22.9809 120.628 22.5137 122.922 22.5137C125.598 22.5137 128.019 23.1933 130.185 24.4676C132.352 25.7844 134.051 27.6534 135.325 30.0746C136.6 32.4958 137.194 35.2992 137.194 38.5275C137.194 41.7557 136.557 44.5592 135.325 47.0229C134.051 49.4866 132.352 51.398 130.185 52.7573C128.019 54.1165 125.598 54.7962 122.922 54.7962C120.628 54.7962 118.589 54.3289 116.847 53.3944C115.106 52.4599 113.661 51.2706 112.599 49.8264V69.1534H104.698V23.0234H112.599V27.526C113.619 26.1242 115.021 24.9349 116.805 23.9579ZM127.977 33.6426C127.212 32.2834 126.192 31.2215 124.918 30.4993C123.644 29.7772 122.284 29.4374 120.84 29.4374C119.396 29.4374 118.079 29.8197 116.805 30.5418C115.53 31.2639 114.511 32.3259 113.746 33.7276C112.982 35.1293 112.599 36.7435 112.599 38.6549C112.599 40.5239 112.982 42.1805 113.746 43.5823C114.511 44.984 115.53 46.0459 116.805 46.768C118.079 47.4901 119.396 47.8724 120.84 47.8724C122.327 47.8724 123.686 47.4901 124.918 46.7256C126.192 45.961 127.212 44.899 127.977 43.4973C128.741 42.0956 129.124 40.439 129.124 38.5275C129.124 36.6585 128.741 35.0444 127.977 33.6426Z" fill="#F6FDEA"/>
<path d="M147.007 53.3944C144.968 52.46 143.353 51.2281 142.164 49.6565C140.975 48.0848 140.337 46.3433 140.21 44.3893H148.196C148.366 45.5787 148.918 46.5981 149.98 47.3627C151 48.1698 152.316 48.5521 153.846 48.5521C155.332 48.5521 156.522 48.2547 157.371 47.6601C158.221 47.0654 158.646 46.3008 158.646 45.3663C158.646 44.3468 158.136 43.5823 157.074 43.0725C156.055 42.5628 154.398 42.0106 152.146 41.4159C149.81 40.8637 147.899 40.2691 146.412 39.6744C144.925 39.0797 143.651 38.1452 142.589 36.9134C141.484 35.6815 140.975 33.9825 140.975 31.9011C140.975 30.1595 141.484 28.5879 142.461 27.1437C143.438 25.6994 144.883 24.595 146.752 23.7455C148.621 22.896 150.787 22.5137 153.336 22.5137C157.074 22.5137 160.048 23.4482 162.256 25.3172C164.465 27.1861 165.697 29.6923 165.91 32.8356H158.348C158.221 31.6038 157.711 30.6268 156.777 29.8622C155.842 29.1401 154.61 28.7578 153.081 28.7578C151.637 28.7578 150.532 29.0127 149.768 29.5649C149.003 30.0746 148.621 30.8392 148.621 31.7737C148.621 32.8356 149.13 33.6426 150.192 34.1524C151.254 34.7046 152.869 35.2568 155.12 35.809C157.371 36.3612 159.24 36.9559 160.685 37.5505C162.171 38.1452 163.403 39.0797 164.508 40.354C165.57 41.6283 166.122 43.2849 166.164 45.3663C166.164 47.1503 165.655 48.8069 164.678 50.2087C163.701 51.6529 162.256 52.7573 160.387 53.5644C158.518 54.3714 156.352 54.7962 153.888 54.7962C151.339 54.7962 149.046 54.3289 147.007 53.3944Z" fill="#F6FDEA"/>
</g>
</g>
</g>
<defs>
<clipPath id="clip0_884_2">
<rect width="168" height="70" fill="white"/>
</clipPath>
</defs>
</svg>
